<?xml version="1.0" standalone="no"?>
<!DOCTYPE svg PUBLIC "-//W3C//DTD SVG 20010904//EN"
 "http://www.w3.org/TR/2001/REC-SVG-20010904/DTD/svg10.dtd">
<svg version="1.0" xmlns="http://www.w3.org/2000/svg"
 width="1080.000000pt" height="1080.000000pt" viewBox="0 0 1080.000000 1080.000000"
 preserveAspectRatio="xMidYMid meet">

<g transform="translate(0.000000,1080.000000) scale(0.100000,-0.100000)"
fill="#000000" stroke="none">
<path d="M5240 10084 c-25 -2 -108 -9 -185 -15 -344 -27 -666 -93 -995 -202
-339 -113 -790 -341 -1096 -553 -430 -299 -761 -613 -1075 -1019 -117 -151
-126 -165 -205 -290 -393 -619 -643 -1309 -719 -1980 -65 -582 -24 -1116 135
-1770 117 -478 264 -855 436 -1121 311 -482 406 -605 674 -878 320 -326 539
-512 840 -713 424 -282 807 -452 1293 -572 350 -87 535 -120 806 -146 599 -56
1307 55 1942 305 82 33 362 175 458 233 326 196 652 452 959 752 381 372 620
689 854 1135 54 103 156 325 185 405 88 238 194 590 237 785 25 115 79 466 90
590 51 551 7 1090 -135 1635 -76 289 -140 471 -261 734 -81 177 -112 238 -215
431 -46 85 -224 352 -326 488 -169 225 -377 444 -537 567 -58 43 -150 115
-205 160 -655 530 -1394 876 -2125 994 -204 33 -673 58 -830 45z m455 -120
c519 -21 1015 -157 1538 -420 255 -129 433 -240 713 -449 119 -89 165 -117
220 -135 38 -12 102 -40 142 -61 90 -48 248 -176 322 -261 l54 -63 -87 82
c-145 136 -273 204 -445 237 -109 21 -131 32 -242 120 -442 353 -1023 643
-1544 771 -365 89 -753 133 -1056 120 -659 -28 -1201 -165 -1725 -435 -311
-159 -414 -224 -691 -431 -265 -199 -443 -360 -633 -574 -284 -318 -475 -607
-704 -1062 -127 -251 -129 -258 -222 -534 -233 -691 -285 -1213 -189 -1864 41
-279 134 -677 208 -892 79 -228 76 -223 97 -223 10 0 19 3 19 6 0 3 -22 74
-49 157 -138 426 -211 756 -256 1157 -21 184 -16 634 9 808 69 477 227 985
431 1386 389 766 871 1310 1575 1781 308 206 669 381 1010 489 463 146 1023
219 1445 187 724 -55 1381 -284 1988 -694 65 -44 116 -84 114 -90 -2 -6 -12
-16 -23 -23 -17 -12 -30 -6 -119 54 -285 191 -520 316 -810 432 -255 102 -587
189 -855 225 -394 53 -882 39 -1260 -36 -534 -106 -968 -285 -1440 -593 -147
-97 -386 -276 -521 -392 -107 -92 -359 -345 -442 -445 -361 -433 -680 -1007
-856 -1539 -120 -367 -183 -725 -197 -1140 -7 -202 -2 -273 47 -620 42 -297
86 -487 216 -932 15 -53 33 -77 33 -45 0 7 7 22 15 33 13 17 14 8 15 -93 l0
-112 -62 -28 c-35 -15 -65 -28 -67 -28 -13 0 -109 268 -170 475 -54 184 -130
544 -165 780 -66 449 -46 887 64 1350 96 412 221 759 390 1085 295 571 672
1073 1056 1405 172 148 440 344 619 452 568 342 1118 536 1725 608 124 15 432
28 540 24 47 -2 148 -6 225 -10z m322 -306 c-3 -7 -5 -2 -5 12 0 14 2 19 5 13
2 -7 2 -19 0 -25z m-30 -25 c-3 -10 -5 -2 -5 17 0 19 2 27 5 18 2 -10 2 -26 0
-35z m-1100 5 c-3 -7 -5 -2 -5 12 0 14 2 19 5 13 2 -7 2 -19 0 -25z m1210 0
c-3 -7 -5 -2 -5 12 0 14 2 19 5 13 2 -7 2 -19 0 -25z m60 -5 c-3 -10 -5 -4 -5
12 0 17 2 24 5 18 2 -7 2 -21 0 -30z m-1430 -20 c-3 -10 -5 -2 -5 17 0 19 2
27 5 18 2 -10 2 -26 0 -35z m1100 -20 c-2 -16 -4 -5 -4 22 0 28 2 40 4 28 2
-13 2 -35 0 -50z m240 15 c-2 -13 -4 -5 -4 17 -1 22 1 32 4 23 2 -10 2 -28 0
-40z m60 30 c-3 -8 -6 -5 -6 6 -1 11 2 17 5 13 3 -3 4 -12 1 -19z m-1430 -55
c-2 -16 -4 -5 -4 22 0 28 2 40 4 28 2 -13 2 -35 0 -50z m-120 25 c-3 -7 -5 -2
-5 12 0 14 2 19 5 13 2 -7 2 -19 0 -25z m30 0 c-3 -7 -5 -2 -5 12 0 14 2 19 5
13 2 -7 2 -19 0 -25z m30 -20 c-2 -13 -4 -5 -4 17 -1 22 1 32 4 23 2 -10 2
-28 0 -40z m1400 15 c-3 -10 -5 -4 -5 12 0 17 2 24 5 18 2 -7 2 -21 0 -30z
m-240 -5 c-3 -8 -6 -5 -6 6 -1 11 2 17 5 13 3 -3 4 -12 1 -19z m210 -15 c-3
-10 -5 -4 -5 12 0 17 2 24 5 18 2 -7 2 -21 0 -30z m-1340 -5 c-3 -7 -5 -2 -5
12 0 14 2 19 5 13 2 -7 2 -19 0 -25z m1540 0 c-3 -7 -5 -2 -5 12 0 14 2 19 5
13 2 -7 2 -19 0 -25z m130 10 c-3 -8 -6 -5 -6 6 -1 11 2 17 5 13 3 -3 4 -12 1
-19z m30 -10 c-3 -8 -6 -5 -6 6 -1 11 2 17 5 13 3 -3 4 -12 1 -19z m-1970 -20
c-3 -7 -5 -2 -5 12 0 14 2 19 5 13 2 -7 2 -19 0 -25z m30 -15 c-3 -10 -5 -2
-5 17 0 19 2 27 5 18 2 -10 2 -26 0 -35z m1660 10 c-3 -10 -5 -4 -5 12 0 17 2
24 5 18 2 -7 2 -21 0 -30z m60 5 c-3 -7 -5 -2 -5 12 0 14 2 19 5 13 2 -7 2
-19 0 -25z m-1590 0 c-3 -8 -6 -5 -6 6 -1 11 2 17 5 13 3 -3 4 -12 1 -19z m30
0 c-3 -8 -6 -5 -6 6 -1 11 2 17 5 13 3 -3 4 -12 1 -19z m1860 -10 c-3 -7 -5
-2 -5 12 0 14 2 19 5 13 2 -7 2 -19 0 -25z m30 10 c-3 -8 -6 -5 -6 6 -1 11 2
17 5 13 3 -3 4 -12 1 -19z m-1860 -20 c-3 -7 -5 -2 -5 12 0 14 2 19 5 13 2 -7
2 -19 0 -25z m1500 10 c-3 -8 -6 -5 -6 6 -1 11 2 17 5 13 3 -3 4 -12 1 -19z
m390 0 c-3 -8 -6 -5 -6 6 -1 11 2 17 5 13 3 -3 4 -12 1 -19z m-2270 -10 c-3
-8 -6 -5 -6 6 -1 11 2 17 5 13 3 -3 4 -12 1 -19z m220 0 c-3 -8 -6 -5 -6 6 -1
11 2 17 5 13 3 -3 4 -12 1 -19z m1770 -15 c-3 -10 -5 -4 -5 12 0 17 2 24 5 18
2 -7 2 -21 0 -30z m310 5 c-3 -7 -5 -2 -5 12 0 14 2 19 5 13 2 -7 2 -19 0 -25z
m-2330 0 c-3 -8 -6 -5 -6 6 -1 11 2 17 5 13 3 -3 4 -12 1 -19z m1990 -10 c-3
-7 -5 -2 -5 12 0 14 2 19 5 13 2 -7 2 -19 0 -25z m190 0 c-3 -7 -5 -2 -5 12 0
14 2 19 5 13 2 -7 2 -19 0 -25z m180 10 c-3 -8 -6 -5 -6 6 -1 11 2 17 5 13 3
-3 4 -12 1 -19z m-2390 -10 c-3 -8 -6 -5 -6 6 -1 11 2 17 5 13 3 -3 4 -12 1
-19z m2290 -25 c-3 -10 -5 -4 -5 12 0 17 2 24 5 18 2 -7 2 -21 0 -30z m-60
-15 c-3 -7 -5 -2 -5 12 0 14 2 19 5 13 2 -7 2 -19 0 -25z m-2160 -10 c-3 -8
-6 -5 -6 6 -1 11 2 17 5 13 3 -3 4 -12 1 -19z m-190 -10 c-3 -8 -6 -5 -6 6 -1
11 2 17 5 13 3 -3 4 -12 1 -19z m130 -10 c-3 -7 -5 -2 -5 12 0 14 2 19 5 13 2
-7 2 -19 0 -25z m1178 22 c-394 -13 -705 -63 -1090 -176 -189 -56 -401 -148
-652 -284 -62 -34 -113 -59 -113 -57 0 8 174 105 305 170 364 182 703 279
1155 331 187 22 200 23 420 23 l195 0 -220 -7z m-1357 -31 c-3 -8 -7 -3 -11
10 -4 17 -3 21 5 13 5 -5 8 -16 6 -23z m79 9 c-3 -8 -6 -5 -6 6 -1 11 2 17 5
13 3 -3 4 -12 1 -19z m1601 15 c-10 -2 -26 -2 -35 0 -10 3 -2 5 17 5 19 0 27
-2 18 -5z m-1711 -25 c-3 -8 -6 -5 -6 6 -1 11 2 17 5 13 3 -3 4 -12 1 -19z
m1790 16 c-3 -3 -12 -4 -19 -1 -8 3 -5 6 6 6 11 1 17 -2 13 -5z m421 -39 c29
-9 67 -30 87 -49 26 -25 50 -36 98 -45 101 -20 234 -60 336 -101 128 -51 234
-100 229 -106 -3 -2 -36 11 -74 30 -143 69 -367 142 -496 160 -46 7 -48 6 -48
-18 0 -28 17 -40 73 -50 138 -25 475 -155 513 -198 18 -19 17 -24 -4 -131 -12
-62 -22 -118 -22 -126 0 -7 19 -31 43 -51 24 -21 52 -58 62 -82 10 -24 27 -55
37 -70 26 -37 23 -46 -28 -119 -64 -88 -116 -197 -105 -218 5 -9 34 -34 65
-56 30 -22 56 -45 56 -52 0 -7 -14 -29 -32 -50 -63 -75 -61 -77 9 -9 63 61 74
68 88 56 10 -8 15 -23 12 -36 -4 -21 -3 -22 19 -7 22 14 26 13 54 -9 36 -28
34 -51 -12 -167 -18 -46 -33 -107 -38 -156 -5 -44 -12 -90 -15 -102 -5 -16 -1
-24 14 -32 18 -10 21 -7 31 26 6 21 17 49 25 63 16 28 20 19 5 -11 -18 -32 -3
-21 17 14 11 18 23 45 27 60 3 15 11 25 16 22 4 -3 25 22 45 55 34 57 54 78
41 45 -3 -8 -2 -15 3 -15 4 0 30 38 56 85 38 69 55 89 83 100 42 18 35 19 62
-5 26 -23 29 -18 -65 -121 -73 -80 -151 -189 -135 -189 8 0 10 -13 5 -40 -6
-33 -4 -40 10 -40 29 0 101 57 198 157 l94 97 33 -14 c117 -48 485 -543 656
-883 81 -159 157 -430 152 -538 -2 -38 0 -69 4 -69 11 0 45 118 58 205 15 96
15 275 0 405 -15 138 -68 238 -279 532 -31 42 -83 116 -116 163 -33 48 -81
114 -106 149 -25 34 -69 107 -98 161 -49 90 -52 100 -40 123 20 36 35 37 70 8
47 -40 84 -31 39 9 -18 16 -28 55 -15 55 7 0 162 -102 198 -130 15 -12 27 -26
27 -32 0 -5 29 -42 64 -82 75 -85 205 -259 242 -324 15 -26 46 -81 70 -122 23
-41 63 -122 89 -180 26 -58 75 -166 110 -240 135 -289 189 -449 230 -680 25
-144 28 -174 11 -115 -8 28 -17 74 -21 103 -8 61 -9 61 -110 32 -39 -11 -122
-32 -185 -46 -107 -24 -119 -29 -170 -73 -30 -25 -75 -62 -100 -81 -57 -44
-57 -44 -71 -110 -16 -77 -25 -93 -49 -80 -34 18 -63 -3 -83 -59 -10 -28 -21
-51 -25 -51 -4 0 -8 -30 -10 -66 l-3 -65 83 8 c137 13 499 8 648 -11 74 -9
141 -16 148 -16 8 0 12 -21 12 -72 0 -40 5 -128 10 -196 7 -109 12 -130 40
-183 17 -34 30 -63 28 -65 -6 -5 -133 20 -232 46 -101 26 -187 26 -245 0 -71
-33 -81 -29 -190 74 -85 80 -106 95 -150 106 -29 7 -71 9 -94 6 -48 -8 -169
-67 -175 -86 -3 -8 0 -10 9 -5 8 4 -3 -7 -23 -24 -21 -18 -38 -36 -38 -41 0
-4 35 -61 78 -126 99 -149 185 -303 211 -374 50 -137 56 -177 55 -365 -1 -194
-18 -309 -70 -465 -64 -190 -240 -489 -424 -720 -103 -129 -278 -310 -339
-350 -78 -52 -159 -36 -177 35 -3 14 -1 119 5 233 15 276 2 426 -56 647 -12
47 -15 110 -14 285 3 439 -59 790 -214 1199 -99 263 -194 435 -500 902 -175
266 -196 303 -351 609 -141 277 -250 535 -355 840 l-54 155 3 175 c1 105 -2
195 -9 225 -15 66 -56 145 -74 145 -8 0 -39 -11 -70 -25 -92 -42 -109 -43
-154 -3 -21 20 -43 37 -50 39 -7 3 -2 32 18 91 17 48 44 147 62 220 65 274 88
325 173 386 46 33 156 87 156 76 0 -3 -15 -24 -34 -46 -47 -54 -98 -163 -104
-220 -3 -36 0 -55 17 -83 19 -32 20 -42 10 -78 -8 -33 -31 -62 -110 -139 -54
-54 -99 -104 -99 -110 0 -7 -3 -23 -6 -35 -5 -18 -2 -23 12 -23 47 1 108 44
220 158 91 91 130 123 166 137 44 16 49 16 73 1 18 -12 25 -25 25 -49 0 -40
-16 -65 -94 -144 -66 -69 -65 -79 5 -35 132 84 262 303 299 505 24 133 -3 263
-65 303 -65 42 -193 25 -329 -43 -183 -92 -231 -133 -346 -293 -37 -52 -95
-127 -128 -166 -32 -39 -80 -99 -105 -133 -46 -64 -100 -111 -126 -111 -8 0 7
14 32 31 26 17 47 34 47 38 0 4 -12 18 -26 32 -72 67 -97 159 -69 254 9 32 14
68 11 81 -9 33 -114 161 -151 184 -49 31 -88 26 -134 -16 -55 -49 -90 -112
-107 -197 -25 -121 3 -236 82 -333 24 -29 44 -56 44 -59 0 -3 -36 -23 -80 -45
-78 -39 -123 -76 -174 -143 -18 -23 -58 -50 -122 -82 -149 -73 -191 -125 -221
-275 -15 -76 -19 -83 -90 -166 -119 -139 -340 -426 -367 -479 -35 -64 -33 -99
4 -136 44 -44 76 -37 118 26 30 43 33 56 29 98 -2 26 -1 47 4 47 8 0 39 -97
39 -122 0 -27 -41 -79 -75 -95 -35 -17 -35 -17 -16 -37 10 -12 30 -40 45 -63
21 -35 35 -45 78 -58 63 -18 187 -19 248 -1 39 11 50 21 80 71 33 56 39 61
135 106 55 26 159 68 230 93 72 26 172 63 223 83 51 20 94 34 96 32 52 -60
120 -163 137 -207 19 -47 23 -77 23 -172 1 -113 0 -118 -62 -318 -34 -112 -62
-214 -62 -228 0 -16 8 -28 23 -35 13 -6 29 -19 36 -31 11 -17 7 -26 -28 -73
-53 -71 -106 -176 -125 -252 -35 -136 -31 -313 11 -444 13 -41 254 -532 268
-547 1 -1 30 40 63 92 62 98 162 229 169 222 6 -5 -66 -148 -142 -281 -34 -60
-90 -171 -125 -245 -86 -185 -281 -572 -325 -645 -54 -89 -96 -128 -237 -216
-70 -44 -139 -94 -154 -112 -15 -18 -45 -70 -66 -117 -22 -47 -64 -135 -94
-196 -42 -83 -55 -119 -52 -145 3 -29 7 -34 31 -37 63 -7 139 63 235 219 l33
54 -6 -60 c-3 -33 -13 -96 -21 -139 -18 -86 -14 -163 12 -224 19 -47 28 -52
94 -52 l56 0 -10 75 c-6 49 -6 82 1 97 8 19 12 10 22 -53 19 -117 64 -170 120
-140 19 11 20 18 15 114 -5 106 7 110 20 7 7 -55 28 -100 46 -100 18 0 62 91
96 196 19 58 48 183 64 279 29 171 55 265 85 311 31 48 83 100 249 248 328
293 456 431 558 598 l50 83 -6 -55 c-4 -30 -11 -131 -16 -225 -4 -93 -16 -201
-25 -240 -24 -105 -101 -252 -219 -420 -110 -157 -169 -254 -145 -240 8 5 28
19 44 31 217 159 373 70 420 -240 14 -94 13 -115 -4 -75 -84 204 -133 289
-167 289 -8 0 -19 -10 -23 -22 -8 -19 -4 -28 20 -48 42 -36 60 -110 61 -250 0
-181 -33 -335 -197 -915 -41 -143 -81 -289 -90 -325 -20 -77 -16 -190 8 -236
9 -18 56 -76 105 -130 48 -55 91 -107 95 -116 8 -23 -10 -134 -29 -170 -14
-28 -79 -66 -92 -54 -3 3 5 38 17 78 11 40 21 76 21 79 0 3 -26 9 -57 11 -184
17 -376 130 -541 320 -218 249 -375 503 -537 862 -96 214 -142 351 -156 457
-5 46 -11 84 -12 85 -1 1 -49 -10 -107 -24 -104 -25 -106 -26 -165 -87 -125
-126 -258 -350 -277 -466 -17 -97 -1 -160 60 -232 139 -166 290 -328 345 -371
69 -54 272 -155 419 -210 126 -46 256 -110 290 -143 15 -15 27 -28 25 -29 -12
-12 -236 58 -397 124 -13 5 -13 3 1 -18 40 -63 75 -239 50 -255 -22 -13 -131
-19 -131 -6 0 6 6 11 13 11 22 0 57 39 57 64 0 13 -11 64 -25 112 -30 104 -42
117 -147 158 -67 26 -83 28 -229 29 l-157 2 -7 85 c-4 47 -11 105 -15 130 -5
28 -5 50 2 57 7 9 -16 45 -85 130 -116 145 -137 184 -144 273 -11 125 26 243
121 390 58 89 164 218 204 247 29 21 31 26 26 70 -8 66 18 142 118 357 l51
108 -19 207 c-12 128 -19 288 -19 423 0 119 -3 209 -7 199 -14 -40 -28 -219
-33 -449 -3 -133 -10 -265 -16 -293 -19 -86 -183 -293 -594 -745 -60 -66 -168
-187 -240 -267 -71 -80 -134 -146 -139 -146 -28 -2 -246 178 -365 302 -145
150 -194 227 -310 475 -103 221 -136 303 -180 455 -22 75 -45 144 -50 154 -6
10 -55 59 -109 108 -103 95 -138 133 -128 142 6 7 66 -39 172 -130 74 -64 117
-88 132 -73 3 4 2 10 -4 14 -18 11 -65 92 -54 92 5 0 28 -16 50 -36 l39 -36
48 67 c76 105 368 491 446 588 61 75 75 87 94 82 15 -3 23 -1 23 7 0 18 -20
47 -20 31 0 -23 -21 -13 -57 27 -29 32 -39 37 -50 28 -8 -6 -17 -7 -22 -2 -5
5 35 50 90 103 55 51 99 89 99 84 0 -5 -29 -41 -65 -80 -36 -39 -65 -75 -65
-80 0 -9 30 -27 60 -36 20 -5 90 43 129 90 l32 38 -26 -42 c-22 -35 -26 -49
-20 -81 11 -70 61 -155 140 -242 42 -47 88 -106 101 -132 13 -27 29 -48 35
-48 11 0 91 82 273 283 54 59 107 112 117 118 16 8 29 4 67 -25 89 -65 228
-101 362 -94 l65 3 3 110 c2 61 -2 255 -9 431 l-12 322 -76 -5 c-46 -3 -119 1
-184 11 -59 9 -129 16 -155 16 -59 0 -150 -42 -214 -99 -46 -41 -56 -59 -144
-246 -29 -62 -89 -128 -149 -164 -19 -11 -35 -19 -35 -17 0 2 25 28 55 58 34
34 55 63 55 78 0 14 -25 48 -70 94 -72 74 -80 86 -57 86 13 0 114 -99 140
-138 l15 -24 17 25 c23 36 12 67 -56 143 -32 37 -59 72 -59 77 0 13 111 -108
128 -139 7 -13 15 -24 17 -24 3 0 18 26 34 58 60 118 131 186 232 222 l36 13
-19 34 c-19 31 -21 68 -7 111 2 8 -16 20 -49 31 -47 16 -108 58 -98 68 2 2 21
-7 41 -21 21 -15 55 -31 76 -36 33 -9 40 -16 57 -63 12 -31 27 -53 37 -56 16
-3 17 3 11 60 -4 35 -12 69 -17 75 -18 22 372 424 536 553 61 48 85 74 102
112 l22 49 -22 4 c-12 3 -44 8 -71 11 -27 4 -63 13 -80 22 l-32 15 -90 -67
c-83 -63 -232 -190 -331 -282 -62 -58 -59 -83 17 -156 33 -31 60 -63 60 -69 0
-7 -11 1 -25 18 -13 17 -45 48 -70 69 l-46 37 -42 -18 c-23 -10 -49 -24 -58
-31 -25 -21 -37 -16 -64 32 -20 34 -25 52 -20 75 7 33 75 97 112 106 42 11 19
34 -32 34 -32 0 -127 -88 -150 -139 -23 -52 -10 -87 45 -119 22 -12 40 -26 40
-31 0 -4 -10 -23 -23 -42 -31 -46 -60 -48 -108 -9 l-39 31 -28 -32 c-15 -18
-45 -58 -66 -88 -60 -84 -140 -184 -236 -296 -48 -55 -126 -150 -173 -212 -48
-62 -95 -116 -104 -121 -11 -6 -28 -5 -49 4 l-34 14 -20 -40 c-39 -76 -36
-170 5 -170 8 0 27 19 42 43 15 23 29 44 31 47 2 2 7 -2 12 -10 11 -18 -8 -54
-55 -103 -20 -21 -34 -44 -32 -50 2 -7 22 -25 45 -41 l41 -29 36 27 c19 15 96
93 171 174 74 81 140 149 145 150 33 12 -7 -41 -116 -153 -69 -71 -127 -137
-131 -147 -3 -10 -10 -16 -15 -13 -14 9 -81 -46 -75 -62 9 -22 -19 -14 -45 13
-31 34 -54 45 -73 38 -9 -3 -50 -47 -92 -98 -104 -125 -253 -294 -349 -396
-45 -47 -93 -102 -109 -122 l-28 -37 20 -26 c35 -45 128 -115 160 -121 54 -11
45 -21 425 459 87 109 164 197 173 197 14 0 14 -3 -3 -29 -15 -24 -291 -385
-475 -622 -35 -44 -40 -47 -90 -51 -52 -3 -54 -2 -160 74 -58 43 -109 78 -111
78 -3 0 -8 -11 -11 -25 -4 -16 -13 -25 -26 -25 -13 0 -17 -5 -14 -14 7 -17
-69 -43 -153 -53 -53 -6 -53 -6 -67 29 -8 19 -31 97 -51 174 -20 76 -61 211
-91 299 -77 227 -101 322 -121 475 -16 116 -16 152 -7 255 7 66 12 150 13 188
1 57 4 67 19 67 9 0 78 -18 152 -39 74 -21 180 -50 235 -65 56 -15 106 -31
113 -34 22 -14 37 -195 37 -462 0 -146 -4 -278 -8 -294 -7 -25 -6 -28 6 -18 8
7 17 33 21 59 3 26 13 54 22 64 13 15 16 53 19 226 3 184 15 344 31 396 4 11
0 17 -10 17 -23 0 -517 167 -639 215 -15 7 -18 18 -15 76 2 38 5 69 8 69 11 0
268 -92 480 -172 118 -44 278 -101 355 -125 112 -35 387 -124 439 -142 7 -2 8
0 1 7 -18 18 -527 230 -615 256 -47 13 -105 34 -130 47 -24 12 -119 50 -210
84 -285 108 -320 124 -320 151 0 13 3 24 8 24 13 0 256 -81 440 -147 100 -35
189 -62 197 -59 11 4 15 22 15 64 0 129 36 338 87 512 53 176 206 559 276 690
55 102 139 225 205 297 l64 73 59 -53 c147 -130 209 -173 209 -147 0 5 -25 34
-56 64 -30 31 -47 53 -38 49 14 -5 16 -3 11 11 -10 25 12 10 78 -53 42 -41 55
-49 55 -34 0 27 -50 103 -90 136 -25 21 -39 27 -60 22 -24 -5 -33 0 -65 40
l-38 46 34 36 c19 20 41 44 51 54 15 16 22 11 115 -84 280 -288 286 -297 353
-460 18 -43 39 -84 47 -92 9 -10 34 -15 68 -15 l54 0 -10 32 c-5 18 -9 44 -9
58 0 19 -30 54 -123 145 -67 66 -129 129 -136 140 -8 11 7 -2 33 -30 26 -27
44 -43 40 -35 -11 21 -173 217 -272 329 l-84 95 99 95 c219 213 460 411 568
466 51 25 59 26 112 17 75 -13 102 -24 141 -57 40 -34 32 -55 -38 -90 -28 -14
-50 -27 -50 -30 0 -10 116 37 146 60 l33 25 -34 72 c-52 107 -46 203 11 181
11 -3 40 -21 66 -39 84 -57 126 -68 211 -56 100 15 240 70 233 91 -51 152 -58
187 -52 271 3 47 9 94 12 106 5 19 3 20 -73 13 -50 -5 -125 -24 -208 -53 -71
-24 -166 -52 -211 -62 l-81 -18 -17 -48 c-21 -60 -68 -99 -204 -169 l-103 -53
-103 2 -104 2 -76 -51 c-74 -49 -77 -52 -70 -83 3 -17 13 -44 21 -59 8 -16 13
-43 11 -60 -3 -29 -6 -32 -33 -30 -144 10 -145 10 -243 -42 -51 -27 -120 -71
-153 -97 -32 -26 -62 -48 -66 -48 -3 0 -21 11 -40 26 -40 30 -44 23 -5 -11 18
-16 22 -25 12 -25 -13 0 -13 -1 0 -10 8 -5 11 -12 7 -16 -3 -4 -27 11 -53 32
-25 21 -55 46 -66 54 -12 10 -17 22 -12 33 7 18 230 214 326 286 34 26 64 41
73 37 8 -3 15 -1 15 4 0 27 163 152 325 249 312 187 644 322 945 385 284 60
365 72 655 97 146 12 493 6 597 -11 66 -11 67 -11 140 24 121 59 181 65 296
31z m-2021 -27 c-3 -8 -6 -5 -6 6 -1 11 2 17 5 13 3 -3 4 -12 1 -19z m-99 -49
c-3 -8 -7 -3 -11 10 -4 17 -3 21 5 13 5 -5 8 -16 6 -23z m3088 -103 c-11 -30
-22 -50 -24 -46 -4 10 34 100 41 100 2 0 -5 -24 -17 -54z m-46 -41 c-7 -20
-14 -35 -16 -33 -2 2 1 21 7 42 6 21 13 36 16 33 3 -3 0 -22 -7 -42z m-3502
-30 c-3 -3 -9 2 -12 12 -6 14 -5 15 5 6 7 -7 10 -15 7 -18z m3627 -45 c-9 -16
-18 -30 -21 -30 -2 0 2 14 11 30 9 17 18 30 21 30 2 0 -2 -13 -11 -30z m-251
-25 c11 -8 16 -15 10 -15 -5 0 -18 7 -28 15 -11 8 -16 15 -10 15 5 0 18 -7 28
-15z m903 -121 c107 -83 163 -133 163 -146 0 -18 -137 64 -252 150 -45 34 -47
37 -31 54 9 10 17 18 19 18 1 0 47 -34 101 -76z m-277 16 c0 -5 -2 -10 -4 -10
-3 0 -8 5 -11 10 -3 6 -1 10 4 10 6 0 11 -4 11 -10z m-25 -28 c-3 -3 -11 0
-18 7 -9 10 -8 11 6 5 10 -3 15 -9 12 -12z m-4337 -37 c-3 -3 -9 2 -12 12 -6
14 -5 15 5 6 7 -7 10 -15 7 -18z m247 15 c-3 -5 -12 -10 -18 -10 -7 0 -6 4 3
10 19 12 23 12 15 0z m4053 -10 c-7 -11 -17 -20 -22 -20 -5 0 -1 9 9 20 10 11
20 20 22 20 2 0 -2 -9 -9 -20z m-4103 -20 c-3 -5 -12 -10 -18 -10 -7 0 -6 4 3
10 19 12 23 12 15 0z m-80 -46 c-26 -20 -55 -36 -55 -30 0 5 63 46 70 46 3 -1
-4 -8 -15 -16z m-73 -46 c-6 -7 -25 -22 -44 -32 -39 -23 -32 -13 14 20 38 26
45 29 30 12z m5045 -101 c174 -89 564 -570 808 -998 354 -622 569 -1287 624
-1934 21 -238 12 -640 -20 -865 -47 -343 -156 -726 -311 -1100 -145 -349 -273
-599 -446 -870 -127 -199 -365 -485 -601 -721 -381 -380 -732 -639 -1152 -850
-361 -181 -628 -268 -1059 -348 -342 -63 -461 -75 -755 -74 -371 0 -605 27
-925 103 -246 59 -575 179 -847 308 -217 102 -250 129 -145 118 31 -3 118 -10
192 -16 74 -6 154 -12 176 -14 27 -2 61 -16 98 -41 168 -111 699 -240 1041
-252 l160 -6 108 -60 109 -60 103 -5 c56 -2 156 1 221 8 268 27 633 108 713
157 91 57 151 178 151 306 l0 74 35 10 35 11 0 -143 c0 -85 -4 -146 -10 -150
-23 -14 -7 -22 24 -13 36 11 76 4 60 -11 -5 -5 -31 -16 -59 -26 -27 -10 -57
-24 -65 -31 -8 -7 -35 -24 -60 -39 -38 -22 -41 -25 -15 -19 17 4 66 20 110 36
44 16 124 44 177 63 539 193 1011 495 1465 939 419 408 633 696 891 1196 90
175 179 379 197 453 9 36 -15 28 -32 -11 -98 -227 -149 -331 -271 -552 -228
-417 -395 -635 -776 -1015 -439 -439 -814 -694 -1334 -911 -112 -47 -157 -61
-163 -53 -4 7 -10 49 -13 93 -4 45 -9 113 -12 152 l-6 71 42 17 c24 9 46 13
51 9 4 -4 9 -56 11 -115 2 -58 6 -110 11 -114 25 -25 438 168 652 304 143 91
329 229 439 326 44 39 125 110 180 159 187 162 478 489 461 517 -4 7 -21 21
-39 32 -17 11 -22 17 -11 13 11 -4 33 -12 48 -17 16 -6 32 -7 36 -2 90 103
264 365 359 539 94 174 209 409 243 496 17 46 38 88 45 92 28 16 148 213 230
378 54 108 149 513 180 769 26 206 26 689 1 885 -58 448 -174 844 -391 1330
-120 268 -259 514 -445 785 -179 262 -452 570 -561 634 l-32 18 12 -23 c7 -13
47 -60 89 -104 87 -92 255 -289 358 -420 419 -536 784 -1356 892 -2005 79
-477 76 -939 -10 -1380 -51 -261 -96 -370 -161 -393 -23 -8 -22 -3 2 69 93
269 132 485 150 845 22 442 -27 879 -145 1274 -20 66 -45 151 -56 188 -77 259
-309 730 -529 1077 -204 320 -540 711 -686 796 -41 24 -57 44 -35 44 25 0 17
33 -17 66 l-37 36 95 -5 c77 -3 105 -9 147 -30z m-267 -90 c0 -2 -17 -19 -37
-38 -34 -31 -30 -20 7 22 13 15 30 24 30 16z m140 -78 c0 -5 -4 -9 -9 -9 -4 0
-41 -33 -81 -72 l-73 -73 62 73 c33 40 61 80 61 90 0 14 -2 14 -9 3 -5 -8 -18
-12 -30 -8 -15 4 -32 -7 -65 -43 -48 -51 -86 -80 -50 -39 11 13 28 38 38 54
10 17 27 40 38 52 l20 21 49 -20 c27 -11 49 -25 49 -29z m495 1 c10 -11 16
-20 13 -20 -3 0 -13 9 -23 20 -10 11 -16 20 -13 20 3 0 13 -9 23 -20z m-725
-24 c0 -2 -8 -10 -17 -17 -16 -13 -17 -12 -4 4 13 16 21 21 21 13z m214 -77
c-32 -33 -68 -65 -79 -71 -11 -5 14 24 54 66 41 41 77 73 80 71 2 -3 -22 -32
-55 -66z m-764 -85 c0 -7 -62 43 -115 91 -22 20 -5 9 38 -25 42 -34 77 -64 77
-66z m850 117 c0 -5 -7 -11 -14 -14 -10 -4 -13 -1 -9 9 6 15 23 19 23 5z m-4
-49 l-29 -27 23 32 c13 18 26 30 29 28 3 -3 -8 -18 -23 -33z m-878 11 c23 -24
46 -53 40 -53 -2 0 -19 16 -38 35 -19 19 -31 35 -27 35 5 0 16 -8 25 -17z
m917 -12 c-3 -6 -11 -11 -17 -11 -6 0 -6 6 2 15 14 17 26 13 15 -4z m-1184
-17 c13 -15 77 -69 142 -121 64 -52 117 -97 117 -100 0 -6 -115 84 -205 161
-97 83 -101 86 -89 86 6 0 21 -12 35 -26z m890 -41 c13 -16 12 -17 -3 -4 -10
7 -18 15 -18 17 0 8 8 3 21 -13z m-953 -23 c-7 -11 -17 -20 -22 -20 -5 0 -1 9
9 20 10 11 20 20 22 20 2 0 -2 -9 -9 -20z m-4409 -77 c-96 -100 -157 -180
-314 -418 -231 -349 -320 -504 -477 -830 -117 -243 -176 -420 -233 -700 -19
-88 -34 -148 -34 -133 -2 53 51 294 94 433 76 243 192 497 388 850 160 287
390 613 561 793 32 34 62 62 65 62 3 0 -20 -26 -50 -57z m5161 13 c0 -2 -8
-10 -17 -17 -16 -13 -17 -12 -4 4 13 16 21 21 21 13z m-340 -28 c0 -6 -6 -5
-15 2 -8 7 -15 14 -15 16 0 2 7 1 15 -2 8 -4 15 -11 15 -16z m370 18 c0 -3 -4
-8 -10 -11 -5 -3 -10 -1 -10 4 0 6 5 11 10 11 6 0 10 -2 10 -4z m-4977 -93
l85 -78 -41 -42 -40 -42 -80 71 c-43 40 -81 78 -84 85 -6 15 46 81 64 82 6 1
50 -34 96 -76z m4947 64 c0 -2 -10 -12 -22 -23 l-23 -19 19 23 c18 21 26 27
26 19z m680 -10 c0 -2 -12 -14 -27 -28 l-28 -24 24 28 c23 25 31 32 31 24z
m-950 -37 c0 -5 -2 -10 -4 -10 -3 0 -8 5 -11 10 -3 6 -1 10 4 10 6 0 11 -4 11
-10z m-2655 -60 c29 -11 29 -12 11 -26 -15 -10 -37 -12 -85 -8 -85 8 -128 -9
-167 -66 -46 -67 -74 -94 -86 -82 -22 22 75 156 134 186 37 19 141 17 193 -4z
m2765 -5 c13 -14 21 -25 18 -25 -2 0 -15 11 -28 25 -13 14 -21 25 -18 25 2 0
15 -11 28 -25z m172 -47 c41 -40 81 -83 87 -96 12 -22 12 -22 -20 -9 -31 12
-171 177 -151 177 5 0 43 -33 84 -72z m-5008 -79 c172 -163 290 -290 295 -315
2 -11 -49 30 -120 96 -133 123 -187 172 -292 263 -60 52 -65 60 -54 77 6 11
16 19 21 17 5 -2 73 -64 150 -138z m-144 0 c118 -104 127 -136 63 -221 -22
-29 -56 -78 -76 -108 -34 -52 -105 -155 -137 -200 -8 -12 -31 -33 -50 -47 -19
-15 -32 -23 -28 -18 4 4 3 14 -3 21 -7 8 -7 14 1 19 5 3 10 1 10 -4 0 -6 5
-11 10 -11 6 0 9 5 8 12 -2 7 7 17 20 23 12 5 22 18 22 28 0 11 4 15 12 11 7
-4 8 -3 4 4 -4 7 -2 20 3 29 6 10 11 14 11 10 0 -5 6 -2 14 5 15 16 31 58 27
73 -1 6 1 7 5 3 9 -9 34 10 34 26 0 6 -5 4 -10 -4 -6 -9 -10 -10 -10 -3 0 6
10 19 22 27 25 18 34 56 16 69 -10 6 -9 7 2 4 8 -2 15 -14 14 -26 -1 -21 1
-21 22 6 48 58 41 89 -14 73 -44 -12 -204 -16 -221 -5 -9 5 -12 4 -8 -2 4 -6
-9 -26 -28 -46 -37 -38 -43 -53 -23 -59 7 -3 8 -10 4 -17 -7 -11 -10 -11 -17
0 -12 20 -18 8 -12 -24 6 -31 39 -35 37 -4 -2 14 7 17 41 17 38 0 44 3 47 23
2 18 9 22 42 22 34 0 40 -3 41 -22 1 -13 -2 -23 -6 -23 -5 0 -6 -7 -3 -15 4
-10 0 -15 -15 -15 -16 0 -21 -6 -21 -25 0 -18 -5 -25 -20 -25 -11 0 -20 -7
-20 -15 0 -9 -9 -15 -24 -15 -18 0 -26 -6 -28 -22 -3 -24 -28 -37 -28 -15 0 9
6 18 13 20 7 4 6 6 -5 6 -11 1 -15 7 -11 21 6 22 1 23 -57 20 -19 -1 -36 -6
-38 -11 -2 -5 -9 -9 -17 -9 -7 0 -15 -13 -18 -29 -6 -30 -53 -88 -68 -83 -5 1
-9 -11 -9 -27 0 -16 -7 -37 -16 -45 -8 -9 -12 -20 -9 -26 3 -6 -1 -13 -10 -16
-8 -4 -14 -14 -13 -23 2 -9 -3 -15 -10 -13 -8 1 -11 -2 -8 -7 4 -5 2 -12 -3
-16 -6 -3 -8 -12 -4 -20 3 -8 0 -15 -6 -15 -6 0 -11 5 -11 10 0 6 -4 10 -10
10 -5 0 -7 -7 -4 -15 4 -8 1 -15 -4 -15 -6 0 -9 -12 -6 -26 3 -16 1 -23 -6
-19 -5 3 -10 0 -10 -7 0 -9 -3 -9 -10 2 -8 13 -10 13 -10 -2 0 -9 -4 -20 -10
-23 -13 -8 -4 14 44 102 21 40 43 70 48 66 6 -3 8 0 6 8 -8 21 146 298 260
469 24 37 205 259 210 260 2 0 35 -27 72 -61z m5890 47 c0 -2 -8 -10 -17 -17
-16 -13 -17 -12 -4 4 13 16 21 21 21 13z m-3666 -18 c-21 -37 -79 -100 -104
-113 -40 -21 -107 -18 -160 6 -42 19 -44 21 -27 34 16 11 25 11 59 -1 66 -23
90 -18 133 27 39 40 66 57 93 58 8 1 10 -4 6 -11z m-1641 -140 c150 -155 196
-214 101 -131 -71 62 -264 257 -264 266 0 24 40 -10 163 -135z m4622 -18 c106
-118 150 -170 142 -170 -2 0 -51 53 -108 117 -158 178 -185 210 -160 188 12
-11 69 -71 126 -135z m728 66 c-38 -35 -69 -63 -71 -61 -4 4 122 125 131 125
4 0 -23 -29 -60 -64z m-1313 33 c-7 -11 -14 -18 -17 -15 -3 3 0 12 7 21 18 21
23 19 10 -6z m1854 -46 c43 -68 85 -144 72 -131 -12 10 -125 198 -120 198 2 0
24 -30 48 -67z m-1957 -35 c-10 -18 -15 -24 -11 -13 4 11 8 30 8 42 1 14 5 18
10 13 6 -6 3 -22 -7 -42z m1208 12 c10 -11 16 -20 13 -20 -3 0 -13 9 -23 20
-10 11 -16 20 -13 20 3 0 13 -9 23 -20z m323 2 c-1 -5 -23 -26 -48 -47 l-45
-39 45 47 c43 46 55 55 48 39z m32 -15 c0 -2 -35 -34 -77 -71 l-78 -68 72 71
c66 64 83 78 83 68z m-269 -102 l21 -30 -27 30 c-14 17 -35 44 -46 60 l-21 30
27 -30 c14 -16 35 -43 46 -60z m-1303 26 c-13 -22 -26 -41 -30 -41 -4 0 5 20
20 44 34 55 42 52 10 -3z m-8 29 c0 -5 -5 -10 -11 -10 -5 0 -7 5 -4 10 3 6 8
10 11 10 2 0 4 -4 4 -10z m1625 -30 c-3 -5 -16 -15 -28 -21 -21 -10 -21 -9 2
10 25 23 36 27 26 11z m25 -14 c0 -2 -19 -19 -42 -36 l-43 -32 39 36 c38 35
46 40 46 32z m425 -46 c9 -16 13 -30 11 -30 -3 0 -12 14 -21 30 -9 17 -13 30
-11 30 3 0 12 -13 21 -30z m-593 -5 c-17 -14 -34 -25 -38 -25 -11 0 48 49 59
50 5 0 -5 -11 -21 -25z m178 21 c0 -2 -21 -20 -47 -41 l-48 -37 45 41 c45 41
50 45 50 37z m20 -19 c0 -2 -12 -14 -27 -28 l-28 -24 24 28 c23 25 31 32 31
24z m-150 -52 c-18 -19 -35 -33 -38 -31 -4 4 59 65 67 66 3 0 -10 -16 -29 -35z
m160 21 c0 -2 -8 -10 -17 -17 -16 -13 -17 -12 -4 4 13 16 21 21 21 13z m-150
-51 c-13 -14 -28 -25 -34 -25 -6 0 3 11 19 25 39 31 45 32 15 0z m155 15 c-3
-5 -20 -19 -38 -30 -32 -22 -32 -22 3 9 37 32 45 37 35 21z m-140 -40 c-10
-11 -23 -20 -29 -20 -6 0 0 9 14 20 32 25 38 25 15 0z m15 -25 c-13 -14 -26
-22 -29 -19 -3 3 5 14 19 24 34 27 38 25 10 -5z m29 -20 c-13 -13 -28 -25 -33
-25 -5 0 1 11 14 25 13 14 28 25 33 25 5 0 -1 -11 -14 -25z m31 -8 c0 -2 -12
-14 -27 -28 -24 -22 -24 -13 0 19 8 11 27 17 27 9z m140 -11 c0 -2 -8 -10 -17
-17 -16 -13 -17 -12 -4 4 13 16 21 21 21 13z m-6480 -86 c0 -5 -4 -10 -9 -10
-6 0 -13 5 -16 10 -3 6 1 10 9 10 9 0 16 -4 16 -10z m-525 -70 c3 -6 -1 -7 -9
-4 -18 7 -21 14 -7 14 6 0 13 -4 16 -10z m490 -40 c-3 -5 -11 -10 -16 -10 -6
0 -7 5 -4 10 3 6 11 10 16 10 6 0 7 -4 4 -10z m-45 -34 c0 -3 -4 -8 -10 -11
-5 -3 -10 -1 -10 4 0 6 5 11 10 11 6 0 10 -2 10 -4z m20 -80 c0 -50 -5 -62
-59 -143 -32 -48 -68 -110 -80 -138 -41 -98 -93 -408 -110 -662 -4 -62 -10
-116 -14 -119 -3 -3 -67 17 -142 45 -75 29 -167 60 -203 70 -62 17 -67 21 -65
44 1 23 13 56 45 122 5 12 11 30 12 40 2 11 8 19 13 18 5 -1 41 30 79 70 38
39 59 63 47 53 l-21 -18 5 43 c5 34 2 45 -12 56 -26 19 -43 16 -50 -8 -4 -11
-9 -18 -11 -16 -12 12 134 357 151 357 3 0 1 -9 -5 -20 -11 -21 -14 -19 64
-35 19 -4 25 0 30 21 16 63 109 169 179 205 22 12 35 24 31 31 -4 6 -1 9 7 6
7 -2 29 4 48 13 56 28 61 25 61 -35z m6660 4 c-19 -16 -39 -29 -44 -30 -5 0 8
14 29 30 49 39 60 39 15 0z m430 -25 c0 -5 -5 -3 -10 5 -5 8 -10 20 -10 25 0
6 5 3 10 -5 5 -8 10 -19 10 -25z m-410 12 c0 -2 -10 -12 -22 -23 l-23 -19 19
23 c18 21 26 27 26 19z m70 -20 c0 -2 -15 -16 -32 -33 l-33 -29 29 33 c28 30
36 37 36 29z m394 -131 c21 -54 35 -100 33 -102 -3 -4 -70 168 -84 216 -13 44
19 -25 51 -114z m-730 88 c3 -8 2 -12 -4 -9 -6 3 -10 10 -10 16 0 14 7 11 14
-7z m246 2 c0 -2 -12 -11 -27 -20 l-28 -17 24 20 c23 21 31 25 31 17z m20 -20
c0 -2 -12 -11 -27 -20 l-28 -17 24 20 c23 21 31 25 31 17z m50 0 c0 -2 -12
-11 -27 -20 l-28 -17 24 20 c23 21 31 25 31 17z m-232 -161 c48 -113 83 -215
82 -239 -1 -6 -23 48 -49 119 -27 72 -63 161 -80 199 -17 38 -31 71 -31 75 0
17 33 -48 78 -154z m-7243 115 c3 -6 -1 -7 -9 -4 -18 7 -21 14 -7 14 6 0 13
-4 16 -10z m361 -17 c-10 -10 -19 5 -10 18 6 11 8 11 12 0 2 -7 1 -15 -2 -18z
m7054 23 c0 -2 -8 -10 -17 -17 -16 -13 -17 -12 -4 4 13 16 21 21 21 13z
m-7435 -26 c3 -6 -1 -7 -9 -4 -18 7 -21 14 -7 14 6 0 13 -4 16 -10z m40 -20
c3 -6 -1 -7 -9 -4 -18 7 -21 14 -7 14 6 0 13 -4 16 -10z m55 -50 c8 -5 11 -10
5 -10 -5 0 -17 5 -25 10 -8 5 -10 10 -5 10 6 0 17 -5 25 -10z m0 -30 c8 -5 11
-10 5 -10 -5 0 -17 5 -25 10 -8 5 -10 10 -5 10 6 0 17 -5 25 -10z m-20 -50 c8
-5 11 -10 5 -10 -5 0 -17 5 -25 10 -8 5 -10 10 -5 10 6 0 17 -5 25 -10z m7900
-45 c0 -5 -5 -3 -10 5 -5 8 -10 20 -10 25 0 6 5 3 10 -5 5 -8 10 -19 10 -25z
m-8005 -84 c39 -17 63 -31 54 -31 -16 0 -169 68 -169 76 0 4 18 -3 115 -45z
m70 29 c3 -6 -1 -7 -9 -4 -18 7 -21 14 -7 14 6 0 13 -4 16 -10z m-45 -10 c8
-5 11 -10 5 -10 -5 0 -17 5 -25 10 -8 5 -10 10 -5 10 6 0 17 -5 25 -10z m-59
-40 c46 -23 73 -38 60 -34 -35 9 -169 73 -155 74 6 0 49 -18 95 -40z m-71 0
c8 -5 11 -10 5 -10 -5 0 -17 5 -25 10 -8 5 -10 10 -5 10 6 0 17 -5 25 -10z
m135 -61 c5 -5 -5 -4 -23 2 -17 6 -32 13 -32 16 0 7 43 -8 55 -18z m-155 1 c8
-5 11 -10 5 -10 -5 0 -17 5 -25 10 -8 5 -10 10 -5 10 6 0 17 -5 25 -10z m0
-30 c24 -15 7 -18 -20 -3 -14 7 -18 13 -10 13 8 0 22 -4 30 -10z m95 -20 c13
-6 15 -9 5 -9 -8 0 -22 4 -30 9 -18 12 -2 12 25 0z m-110 -10 c3 -6 -1 -7 -9
-4 -18 7 -21 14 -7 14 6 0 13 -4 16 -10z m-24 -58 c-7 -2 -18 1 -23 6 -8 8 -4
9 13 5 13 -4 18 -8 10 -11z m146 2 c-3 -3 -12 -4 -19 -1 -8 3 -5 6 6 6 11 1
17 -2 13 -5z m-10 -30 c-3 -3 -12 -4 -19 -1 -8 3 -5 6 6 6 11 1 17 -2 13 -5z
m-30 -20 c-3 -3 -12 -4 -19 -1 -8 3 -5 6 6 6 11 1 17 -2 13 -5z m-120 -30 c-3
-3 -12 -4 -19 -1 -8 3 -5 6 6 6 11 1 17 -2 13 -5z m137 -3 c3 -4 -6 -6 -19 -3
-14 2 -25 6 -25 8 0 8 39 4 44 -5z m-49 -15 c28 -8 41 -14 30 -14 -21 0 -107
25 -90 27 6 0 33 -6 60 -13z m-48 -22 c-3 -3 -12 -4 -19 -1 -8 3 -5 6 6 6 11
1 17 -2 13 -5z m-50 -20 c-3 -3 -12 -4 -19 -1 -8 3 -5 6 6 6 11 1 17 -2 13 -5z
m50 -10 c-3 -3 -12 -4 -19 -1 -8 3 -5 6 6 6 11 1 17 -2 13 -5z m50 -10 c-3 -3
-12 -4 -19 -1 -8 3 -5 6 6 6 11 1 17 -2 13 -5z m6 -31 c-7 -2 -19 -2 -25 0 -7
3 -2 5 12 5 14 0 19 -2 13 -5z m7764 -9 c-3 -3 -12 -4 -19 -1 -8 3 -5 6 6 6
11 1 17 -2 13 -5z m-7814 -11 c-7 -2 -19 -2 -25 0 -7 3 -2 5 12 5 14 0 19 -2
13 -5z m44 -9 c-3 -3 -12 -4 -19 -1 -8 3 -5 6 6 6 11 1 17 -2 13 -5z m7778 -4
c-3 -5 -12 -10 -18 -10 -7 0 -6 4 3 10 19 12 23 12 15 0z m-7868 -6 c-3 -3
-12 -4 -19 -1 -8 3 -5 6 6 6 11 1 17 -2 13 -5z m73 -14 c20 -6 21 -8 5 -8 -11
0 -31 4 -45 8 -20 6 -21 8 -5 8 11 0 31 -4 45 -8z m-27 -27 c-7 -2 -19 -2 -25
0 -7 3 -2 5 12 5 14 0 19 -2 13 -5z m2487 -149 c9 -11 -2 -7 -25 10 -92 68
-145 111 -145 119 0 10 150 -104 170 -129z m-2503 90 c-3 -3 -12 -4 -19 -1 -8
3 -5 6 6 6 11 1 17 -2 13 -5z m7804 -199 c12 -107 12 -633 1 -700 -4 -22 -7
106 -7 285 0 179 -3 386 -6 460 -4 74 -5 117 -3 95 2 -22 9 -85 15 -140z
m-224 98 c-3 -10 -5 -4 -5 12 0 17 2 24 5 18 2 -7 2 -21 0 -30z m-7562 -13 c3
-5 2 -10 -4 -10 -5 0 -13 5 -16 10 -3 6 -2 10 4 10 5 0 13 -4 16 -10z m822
-22 c-3 -7 -5 -2 -5 12 0 14 2 19 5 13 2 -7 2 -19 0 -25z m6753 -18 c0 -16 -2
-30 -4 -30 -2 0 -6 14 -8 30 -3 17 -1 30 4 30 4 0 8 -13 8 -30z m-6771 -44
c-9 -8 -10 -7 -5 7 3 10 7 24 7 30 1 7 3 4 6 -7 3 -10 -1 -23 -8 -30z m-692
-18 c-2 -13 -4 -5 -4 17 -1 22 1 32 4 23 2 -10 2 -28 0 -40z m1926 -37 c-102
-125 -251 -297 -274 -316 -13 -11 1 9 32 45 216 253 282 330 286 330 3 0 -17
-27 -44 -59z m92 39 c7 -11 -128 -179 -249 -309 -100 -108 -202 -231 -301
-361 -65 -86 -79 -99 -92 -89 -13 12 -13 14 1 19 8 3 62 64 120 135 57 72 155
187 217 256 159 174 274 318 273 340 -1 20 20 26 31 9z m-2030 -177 c-7 -157
5 -358 31 -526 9 -54 14 -103 12 -109 -7 -19 -36 183 -49 334 -11 124 -5 448
8 448 3 0 2 -66 -2 -147z m-54 -73 c-26 -283 -10 -432 119 -1119 16 -90 28
-166 26 -168 -5 -5 -9 12 -55 252 -87 453 -103 567 -108 775 -4 132 -1 234 8
315 17 149 24 106 10 -55z m116 68 c-3 -7 -5 -2 -5 12 0 14 2 19 5 13 2 -7 2
-19 0 -25z m-290 -4 c-3 -3 -12 -4 -19 -1 -8 3 -5 6 6 6 11 1 17 -2 13 -5z
m56 -11 c-7 -2 -19 -2 -25 0 -7 3 -2 5 12 5 14 0 19 -2 13 -5z m2167 -22 c0
-18 -18 -41 -33 -41 -4 0 -5 9 -2 20 4 11 2 20 -4 20 -6 0 -11 -4 -11 -10 0
-5 -4 -10 -10 -10 -20 0 -10 20 17 34 32 16 43 13 43 -13z m-2263 13 c-3 -3
-12 -4 -19 -1 -8 3 -5 6 6 6 11 1 17 -2 13 -5z m358 -162 c8 -56 14 -113 14
-125 -2 -42 -27 118 -32 203 -2 47 -3 72 0 55 2 -16 10 -76 18 -133z m-318
152 c-3 -3 -12 -4 -19 -1 -8 3 -5 6 6 6 11 1 17 -2 13 -5z m-20 -30 c-3 -3
-12 -4 -19 -1 -8 3 -5 6 6 6 11 1 17 -2 13 -5z m0 -60 c-3 -3 -12 -4 -19 -1
-8 3 -5 6 6 6 11 1 17 -2 13 -5z m-50 -20 c-3 -3 -12 -4 -19 -1 -8 3 -5 6 6 6
11 1 17 -2 13 -5z m1885 -121 c-28 -32 -67 -74 -88 -93 -21 -19 0 7 46 58 94
102 120 124 42 35z m-1865 -79 c-3 -3 -12 -4 -19 -1 -8 3 -5 6 6 6 11 1 17 -2
13 -5z m126 -1 c-7 -2 -19 -2 -25 0 -7 3 -2 5 12 5 14 0 19 -2 13 -5z m1967
-38 l23 -24 -26 -10 c-15 -6 -27 -20 -29 -33 -4 -22 -5 -22 -13 -4 -6 15 -3
23 13 34 28 19 28 36 0 50 -16 7 -18 11 -7 11 8 1 26 -10 39 -24z m563 -18 c9
-20 24 -63 32 -95 15 -55 14 -58 -10 -109 -29 -59 -76 -103 -108 -103 -38 1
-94 26 -137 60 -84 66 -243 98 -332 66 -21 -8 -35 -10 -32 -5 8 13 75 29 124
29 25 0 85 7 134 15 101 16 101 16 171 -50 21 -19 41 -32 45 -28 9 10 36 87
50 140 8 33 8 50 -4 77 -16 40 -12 48 24 44 18 -2 30 -14 43 -41z m-433 -1 c0
-8 -113 -96 -124 -96 -11 0 8 18 78 71 38 28 46 33 46 25z m4650 -56 c-14 -4
-32 -8 -40 -9 -13 -1 -13 0 0 9 8 5 26 9 40 9 l25 -1 -25 -8z m-6820 -116 c0
-2 -14 -4 -31 -4 -16 0 -28 4 -25 9 5 8 56 3 56 -5z m2000 -28 c0 -2 -8 -10
-17 -17 -16 -13 -17 -12 -4 4 13 16 21 21 21 13z m410 -136 c39 -27 70 -55 70
-60 0 -12 -17 -13 -22 -2 -1 4 -23 23 -48 41 -71 54 -110 94 -127 126 -12 26
-9 24 22 -12 20 -23 67 -65 105 -93z m4811 -51 l141 -149 -48 0 -49 0 -58 95
c-32 52 -81 125 -109 162 -66 88 -47 71 123 -108z m617 16 c0 -34 -1 -36 -8
-15 -4 14 -8 54 -8 90 l1 65 7 -50 c5 -27 8 -68 8 -90z m-7531 -59 c-4 -12
-38 151 -36 174 1 8 10 -25 20 -75 11 -49 18 -94 16 -99z m6988 155 c-15 -13
-62 -26 -50 -13 6 5 19 12 30 15 11 3 22 5 25 6 2 0 0 -3 -5 -8z m412 -33 c-3
-7 -5 -2 -5 12 0 14 2 19 5 13 2 -7 2 -19 0 -25z m-60 0 c-3 -8 -6 -5 -6 6 -1
11 2 17 5 13 3 -3 4 -12 1 -19z m30 -10 c-3 -7 -5 -2 -5 12 0 14 2 19 5 13 2
-7 2 -19 0 -25z m120 -35 c-2 -16 -4 -5 -4 22 0 28 2 40 4 28 2 -13 2 -35 0
-50z m-5633 -39 c82 -70 157 -144 145 -144 -15 1 -200 170 -185 170 4 0 22
-12 40 -26z m5909 -1 c-7 -2 -19 -2 -25 0 -7 3 -2 5 12 5 14 0 19 -2 13 -5z
m-8086 -29 c-3 -3 -12 -4 -19 -1 -8 3 -5 6 6 6 11 1 17 -2 13 -5z m2192 -88
c45 -49 78 -92 76 -95 -8 -7 -144 130 -162 163 -24 47 1 26 86 -68z m5411 74
c-6 -11 -13 -20 -16 -20 -2 0 0 9 6 20 6 11 13 20 16 20 2 0 0 -9 -6 -20z
m-7257 -95 c4 -26 4 -33 -2 -20 -5 11 -11 40 -15 65 -7 54 8 16 17 -45z m7047
50 c13 -14 21 -25 18 -25 -2 0 -15 11 -28 25 -13 14 -21 25 -18 25 2 0 15 -11
28 -25z m227 -37 c-3 -7 -5 -2 -5 12 0 14 2 19 5 13 2 -7 2 -19 0 -25z m-5486
-50 c38 -40 68 -80 68 -88 0 -15 -121 108 -140 143 -20 35 6 15 72 -55z m5463
-163 c40 -49 99 -128 132 -175 65 -94 179 -214 212 -224 12 -4 22 -14 22 -22
0 -8 13 -44 29 -79 16 -36 27 -67 23 -69 -4 -2 -20 -6 -37 -7 -33 -4 -36 0
-81 111 -14 36 -29 70 -32 76 -25 43 -197 279 -273 374 -50 63 -100 129 -111
145 -17 27 -16 26 12 -5 17 -19 64 -75 104 -125z m-7237 123 c-3 -8 -6 -5 -6
6 -1 11 2 17 5 13 3 -3 4 -12 1 -19z m10 -40 c-3 -8 -6 -5 -6 6 -1 11 2 17 5
13 3 -3 4 -12 1 -19z m7045 -89 c47 -66 109 -172 219 -372 17 -31 2 -31 -26
-1 -44 51 -206 329 -249 429 -14 33 -20 52 -13 42 7 -10 38 -54 69 -98z
m-7024 6 c0 -16 -2 -15 -8 5 -4 14 -8 34 -8 45 0 16 2 15 8 -5 4 -14 8 -34 8
-45z m60 -430 l-1 -50 -8 45 c-4 25 -7 61 -7 80 l0 35 8 -30 c4 -16 8 -52 8
-80z m467 7 c-6 -6 -45 33 -45 44 0 4 11 -3 25 -16 14 -13 23 -26 20 -28z
m7109 -92 c3 -14 -5 -2 -18 25 -14 28 -25 55 -25 60 0 15 36 -56 43 -85z
m-434 -24 c0 -2 -8 -10 -17 -17 -16 -13 -17 -12 -4 4 13 16 21 21 21 13z
m-6550 -100 c0 -18 -17 8 -24 34 l-7 25 15 -25 c9 -14 15 -29 16 -34z m6431
-33 c13 -16 12 -17 -3 -4 -10 7 -18 15 -18 17 0 8 8 3 21 -13z m-7281 -3 c-20
-13 -33 -13 -25 0 3 6 14 10 23 10 15 0 15 -2 2 -10z m7237 -185 l36 -36 -6
-77 c-7 -85 -23 -142 -40 -142 -7 0 -27 9 -46 21 -29 18 -32 24 -28 52 4 18 9
55 12 82 3 28 8 69 11 93 3 23 10 42 16 42 5 0 26 -16 45 -35z m-6292 -275 c4
-96 12 -191 17 -210 6 -19 37 -69 69 -111 33 -42 59 -78 59 -81 0 -3 -17 -8
-37 -12 -21 -4 -51 -13 -68 -21 -29 -13 -27 -14 38 -10 63 4 67 3 57 -15 -13
-23 -13 -33 -1 -25 5 3 12 1 16 -4 3 -6 -3 -8 -15 -6 -11 2 -20 -1 -20 -6 0
-6 -7 -6 -19 0 -10 6 -21 8 -24 5 -3 -3 -22 -1 -42 6 -26 9 -40 9 -47 2 -8 -8
-4 -9 12 -5 20 5 21 4 9 -16 -8 -12 -15 -17 -17 -11 -2 5 -8 10 -13 10 -6 0
-5 -8 1 -20 6 -11 8 -31 6 -44 -5 -28 15 -41 34 -23 7 7 5 0 -6 -15 -10 -15
-21 -27 -24 -27 -14 0 -94 127 -134 210 -120 253 -127 273 -109 284 48 29 56
45 49 104 -8 66 -7 68 108 195 l81 88 7 -33 c4 -19 10 -113 13 -209z m-625
148 c24 -26 31 -29 44 -19 13 11 17 10 25 -10 7 -20 4 -27 -23 -43 -17 -10
-34 -22 -37 -27 -6 -10 5 -115 16 -140 4 -11 0 -18 -15 -22 -17 -4 -20 -12
-19 -54 1 -28 12 -68 26 -96 13 -27 23 -51 20 -53 -2 -2 -24 35 -48 84 -24 48
-45 89 -47 91 -1 3 -10 -3 -19 -12 -13 -13 -14 -19 -5 -29 7 -7 12 -24 12 -39
0 -52 74 -200 164 -329 95 -137 157 -210 175 -210 9 0 60 -42 114 -93 l98 -92
-15 -30 c-23 -43 -20 -111 6 -153 24 -39 111 -99 184 -127 81 -30 121 -61 167
-130 15 -22 86 -99 158 -172 115 -115 141 -136 196 -158 35 -14 71 -25 81 -25
31 0 62 -30 116 -113 29 -45 59 -88 68 -95 8 -6 71 -30 139 -52 68 -22 130
-43 138 -46 29 -10 -8 -27 -75 -36 -37 -4 -69 -10 -73 -13 -3 -3 0 -15 7 -26
29 -46 -14 -46 -108 1 -167 84 -426 285 -684 532 -105 101 -263 246 -350 322
-87 77 -185 173 -219 215 -139 176 -306 447 -443 723 -53 106 -102 204 -109
218 -8 15 -24 26 -39 28 -17 2 -41 22 -72 63 -26 32 -51 59 -55 59 -5 0 -9 4
-9 9 0 14 94 44 98 31 2 -5 9 -10 16 -10 7 0 18 -11 24 -24 6 -13 27 -46 48
-73 20 -26 55 -86 76 -133 80 -174 92 -197 133 -265 23 -38 63 -108 90 -155
99 -174 255 -390 282 -390 17 0 55 79 48 100 -8 24 -18 25 -35 5 -7 -8 -19
-15 -26 -15 -33 0 -263 352 -399 611 -39 74 -92 162 -118 195 -26 33 -47 69
-47 80 0 11 -15 36 -33 56 l-33 36 62 16 c35 9 70 16 78 16 8 0 36 -22 62 -50
26 -27 53 -50 60 -50 25 0 25 20 -2 55 -15 20 -25 37 -23 39 8 7 104 55 112
56 4 0 21 -14 37 -32z m7290 6 c0 -8 -4 -12 -10 -9 -5 3 -10 10 -10 16 0 5 5
9 10 9 6 0 10 -7 10 -16z m-30 -115 c15 -28 5 -23 -15 7 -9 15 -12 23 -6 20 6
-4 16 -16 21 -27z m-22 -24 c-3 -3 -9 2 -12 12 -6 14 -5 15 5 6 7 -7 10 -15 7
-18z m-437 -178 c-10 -9 -11 -8 -5 6 3 10 9 15 12 12 3 -3 0 -11 -7 -18z m-31
-73 c0 -8 -5 -12 -10 -9 -6 4 -8 11 -5 16 9 14 15 11 15 -7z m189 -18 c-3 -3
-11 5 -18 17 -13 21 -12 21 5 5 10 -10 16 -20 13 -22z m-19 -11 c13 -14 21
-25 18 -25 -2 0 -15 11 -28 25 -13 14 -21 25 -18 25 2 0 15 -11 28 -25z m-170
-10 c-7 -9 -15 -13 -19 -10 -3 3 1 10 9 15 21 14 24 12 10 -5z m210 -75 c-8
-5 -22 -9 -30 -9 -10 0 -8 3 5 9 27 12 43 12 25 0z m-76 -45 c17 -25 16 -25
-3 -13 -22 13 -36 38 -22 38 5 0 16 -11 25 -25z m37 8 c13 -17 13 -17 -6 -3
-11 8 -22 16 -24 17 -2 2 0 3 6 3 6 0 17 -8 24 -17z m-67 -31 c2 -4 -4 -8 -14
-8 -10 0 -16 4 -14 8 3 4 9 8 14 8 5 0 11 -4 14 -8z m-6001 -114 c118 -103
194 -182 217 -228 12 -23 17 -39 11 -35 -7 3 -11 -2 -11 -14 0 -29 -6 -27 -56
21 -28 27 -53 42 -72 42 -55 2 -131 92 -110 130 7 12 4 16 -9 17 -15 0 -15 2
3 9 28 11 21 54 -11 68 -22 10 -54 52 -40 52 4 0 39 -28 78 -62z m-596 -4 c-3
-3 -12 -4 -19 -1 -8 3 -5 6 6 6 11 1 17 -2 13 -5z m6359 -73 c-4 -5 -1 -12 4
-14 6 -3 5 -4 -2 -3 -15 3 -23 26 -8 26 6 0 9 -4 6 -9z m197 -18 c-7 -2 -19
-2 -25 0 -7 3 -2 5 12 5 14 0 19 -2 13 -5z m-6 -29 c-3 -3 -12 -4 -19 -1 -8 3
-5 6 6 6 11 1 17 -2 13 -5z m-6252 -24 c10 -11 16 -20 13 -20 -3 0 -13 9 -23
20 -10 11 -16 20 -13 20 3 0 13 -9 23 -20z m6015 -10 c-6 -12 -14 -20 -17 -17
-2 3 1 14 8 26 17 26 24 19 9 -9z m-5732 -5 c-3 -3 -9 2 -12 12 -6 14 -5 15 5
6 7 -7 10 -15 7 -18z m5959 9 c-3 -3 -12 -4 -19 -1 -8 3 -5 6 6 6 11 1 17 -2
13 -5z m-6148 -34 c11 -24 11 -24 -3 -6 -9 11 -16 24 -16 30 0 12 5 7 19 -24z
m125 21 c4 -5 -3 -7 -14 -4 -23 6 -26 13 -6 13 8 0 17 -4 20 -9z m5936 -15 c0
-2 -7 -7 -16 -10 -8 -3 -12 -2 -9 4 6 10 25 14 25 6z m87 -2 c-3 -3 -12 -4
-19 -1 -8 3 -5 6 6 6 11 1 17 -2 13 -5z m-67 -28 c0 -2 -9 -6 -20 -9 -11 -3
-18 -1 -14 4 5 9 34 13 34 5z m-183 -28 c-3 -8 -6 -5 -6 6 -1 11 2 17 5 13 3
-3 4 -12 1 -19z m-21 -55 c-10 -10 -19 5 -10 18 6 11 8 11 12 0 2 -7 1 -15 -2
-18z m-4674 -149 c128 -127 150 -199 41 -132 -32 19 -84 49 -115 67 -32 18
-58 37 -58 42 0 4 11 16 25 25 14 9 25 20 25 26 0 5 -19 27 -42 49 l-43 40 59
-34 c32 -18 81 -56 108 -83z m-452 92 c0 -9 -131 -108 -136 -103 -3 3 3 10 15
16 11 6 41 29 66 51 44 38 55 45 55 36z m250 -76 c0 -5 -5 -10 -11 -10 -5 0
-7 5 -4 10 3 6 8 10 11 10 2 0 4 -4 4 -10z m-30 -31 c0 -13 -13 -11 -35 5 -18
13 -18 14 8 9 15 -3 27 -9 27 -14z m-884 -65 c10 -7 16 -15 12 -19 -6 -6 -23
4 -85 55 -7 6 -17 10 -23 10 -11 0 -13 13 -4 23 4 4 24 -8 44 -26 20 -17 45
-37 56 -43z m484 25 c0 -4 -12 -15 -27 -24 l-28 -18 19 21 c12 14 16 30 13 44
-6 22 -5 22 8 4 8 -11 15 -23 15 -27z m206 -74 c-37 -47 -70 -85 -73 -85 -3 0
-1 6 4 13 85 114 127 166 131 163 2 -3 -26 -44 -62 -91z m-661 65 c3 -5 1 -10
-4 -10 -6 0 -11 5 -11 10 0 6 2 10 4 10 3 0 8 -4 11 -10z m755 -7 c0 -14 -140
-187 -140 -174 0 12 127 181 136 181 2 0 4 -3 4 -7z m-684 -39 c19 -15 33 -28
31 -30 -6 -6 -64 25 -77 41 -21 25 7 18 46 -11z m-26 -24 c23 -20 30 -30 19
-30 -19 0 -69 37 -69 51 0 15 13 10 50 -21z m-175 -20 c3 -5 1 -10 -4 -10 -6
0 -11 5 -11 10 0 6 2 10 4 10 3 0 8 -4 11 -10z m65 -10 c0 -5 -2 -10 -4 -10
-3 0 -8 5 -11 10 -3 6 -1 10 4 10 6 0 11 -4 11 -10z m-25 -11 c11 -17 -1 -21
-15 -4 -8 9 -8 15 -2 15 6 0 14 -5 17 -11z m120 1 c13 -6 15 -9 5 -9 -8 0 -22
4 -30 9 -18 12 -2 12 25 0z m-10 -32 c5 -5 2 -8 -8 -8 -9 0 -17 -5 -17 -10 0
-6 -14 -4 -31 5 -17 9 -28 19 -25 23 4 3 12 0 18 -6 7 -7 19 -12 28 -12 10 0
8 6 -10 20 l-25 21 30 -13 c17 -6 34 -15 40 -20z m5523 7 c-3 -3 -9 2 -12 12
-6 14 -5 15 5 6 7 -7 10 -15 7 -18z m-5638 -11 c0 -2 -9 0 -20 6 -11 6 -20 13
-20 16 0 2 9 0 20 -6 11 -6 20 -13 20 -16z m540 1 c-7 -9 -32 -30 -54 -47 -35
-26 -34 -24 9 15 52 48 67 58 45 32z m-485 -36 c-10 -15 -25 -10 -19 6 4 8 10
12 15 9 5 -3 7 -10 4 -15z m262 -13 c-4 -11 -1 -13 10 -9 13 5 14 3 4 -15 -6
-12 -17 -21 -24 -19 -7 1 -11 -6 -9 -15 4 -23 -17 -33 -25 -12 -7 18 24 84 40
84 5 0 7 -7 4 -14z m1081 1 c11 4 11 2 1 -15 -14 -23 -24 -21 -40 9 -9 18 -8
19 8 11 10 -5 24 -7 31 -5z m122 -83 c0 -1 -9 0 -20 3 -11 3 -20 9 -20 15 0
17 -38 50 -45 39 -3 -6 -10 -11 -16 -11 -5 0 -4 9 3 20 12 19 14 18 55 -22 24
-23 43 -43 43 -44z m-100 20 c0 -8 -4 -12 -10 -9 -5 3 -10 10 -10 16 0 5 5 9
10 9 6 0 10 -7 10 -16z m-1244 -25 c21 -23 23 -29 9 -21 -25 13 -62 52 -48 52
5 0 22 -14 39 -31z m877 -106 c38 -48 0 -20 -48 35 -47 54 -48 55 -10 23 22
-19 48 -45 58 -58z m489 17 c3 -16 1 -30 -4 -30 -4 0 -8 14 -8 30 0 17 2 30 4
30 2 0 6 -13 8 -30z m3823 9 c11 -17 -1 -21 -15 -4 -8 9 -8 15 -2 15 6 0 14
-5 17 -11z m-45 -44 c0 -8 -2 -15 -4 -15 -2 0 -6 7 -10 15 -3 8 -1 15 4 15 6
0 10 -7 10 -15z m-4965 -43 c-3 -3 -16 5 -28 17 l-22 23 28 -17 c15 -10 25
-20 22 -23z m4939 22 c3 -8 2 -12 -4 -9 -6 3 -10 10 -10 16 0 14 7 11 14 -7z
m-4893 -61 l24 -26 -32 23 c-34 25 -39 30 -25 30 5 0 19 -12 33 -27z m1469
-93 c37 -5 20 -6 -55 -3 -60 3 -112 7 -114 9 -7 7 112 2 169 -6z m-175 -40
c13 -6 15 -9 5 -9 -8 0 -22 4 -30 9 -18 12 -2 12 25 0z m3335 -11 c0 -6 -4 -7
-10 -4 -5 3 -10 11 -10 16 0 6 5 7 10 4 6 -3 10 -11 10 -16z m-3027 0 c26 -13
56 -49 57 -66 0 -7 -9 -13 -19 -13 -12 0 -28 16 -44 45 -28 48 -27 51 6 34z
m-1023 -43 c0 -2 -8 -10 -17 -17 -16 -13 -17 -12 -4 4 13 16 21 21 21 13z m95
-6 c3 -5 -1 -10 -10 -10 -9 0 -13 5 -10 10 3 6 8 10 10 10 2 0 7 -4 10 -10z
m795 -10 c8 -5 11 -10 5 -10 -5 0 -17 5 -25 10 -8 5 -10 10 -5 10 6 0 17 -5
25 -10z m-811 -13 c-2 -2 -20 -14 -39 -27 l-35 -24 24 27 c14 15 31 27 39 27
9 0 13 -1 11 -3z m581 -41 c0 -3 -4 -8 -10 -11 -5 -3 -10 -1 -10 4 0 6 5 11
10 11 6 0 10 -2 10 -4z m-315 -128 c-93 -11 -127 -23 -183 -66 -39 -30 -44
-31 -31 -11 40 60 156 102 249 90 28 -4 22 -7 -35 -13z m4125 -3 c0 -3 -42
-36 -92 -74 -138 -102 -388 -262 -388 -248 0 3 21 18 48 33 77 45 304 197 368
247 61 48 64 50 64 42z m-490 -330 c0 -2 -10 -9 -22 -15 -22 -11 -22 -10 -4 4
21 17 26 19 26 11z m-50 -29 c0 -2 -7 -7 -16 -10 -8 -3 -12 -2 -9 4 6 10 25
14 25 6z m-2264 -83 c-14 -21 -28 -50 -31 -66 -8 -30 -25 -47 -25 -24 0 8 7
32 16 53 15 37 15 39 -6 56 -22 18 -22 18 24 18 l46 0 -24 -37z m-99 -35 c-3
-8 -6 -5 -6 6 -1 11 2 17 5 13 3 -3 4 -12 1 -19z"/>
<path d="M5026 9331 c-3 -5 1 -14 10 -22 12 -10 18 -10 30 3 14 14 13 15 -12
10 -19 -3 -25 -1 -20 7 4 6 5 11 2 11 -3 0 -7 -4 -10 -9z"/>
<path d="M5076 9307 c-17 -13 -17 -14 7 -30 14 -9 33 -14 42 -11 14 6 12 10
-9 24 -15 9 -23 20 -19 23 11 12 -2 8 -21 -6z"/>
<path d="M5130 9211 c0 -7 22 -39 73 -103 18 -23 18 -23 1 4 -15 25 -15 29 0
44 14 14 43 16 175 18 124 1 162 4 176 16 17 14 13 16 -41 21 -90 10 -384 10
-384 0z"/>
<path d="M4688 9167 c-3 -14 -2 -31 2 -37 5 -7 9 -2 12 13 3 14 2 31 -2 37 -5
7 -9 2 -12 -13z"/>
<path d="M6341 9114 c0 -45 -3 -94 -5 -110 -2 -16 -1 -23 1 -15 4 12 6 12 15
0 7 -10 8 -6 3 14 -4 19 -2 26 5 22 13 -8 13 21 -1 47 -9 16 -8 19 2 13 9 -6
10 -2 5 16 -4 13 -11 40 -16 59 -6 28 -8 19 -9 -46z"/>
<path d="M6301 8898 c-12 -35 -20 -67 -19 -73 2 -5 27 -20 56 -32 29 -11 93
-44 142 -71 l90 -50 43 33 c24 18 52 46 62 61 l18 28 -36 31 c-32 27 -290 135
-324 135 -6 0 -21 -28 -32 -62z"/>
<path d="M2821 8307 c2 -1 13 -9 24 -17 19 -14 19 -14 6 3 -7 9 -18 17 -24 17
-6 0 -8 -1 -6 -3z"/>
<path d="M3681 8214 c0 -11 3 -14 6 -6 3 7 2 16 -1 19 -3 4 -6 -2 -5 -13z"/>
<path d="M3671 8174 c0 -11 3 -14 6 -6 3 7 2 16 -1 19 -3 4 -6 -2 -5 -13z"/>
<path d="M3660 8149 c0 -2 -11 -83 -25 -179 -14 -96 -25 -184 -24 -195 l0 -20
8 20 c5 11 14 67 20 125 6 58 16 136 22 173 6 38 8 71 5 74 -3 4 -6 4 -6 2z"/>
<path d="M6653 7968 c-33 -46 -91 -129 -131 -185 -58 -82 -100 -126 -222 -233
-82 -72 -150 -133 -150 -136 0 -9 53 33 145 116 50 44 124 110 167 145 80 68
122 123 181 240 20 39 46 85 58 103 43 65 9 30 -48 -50z m-83 -162 c0 -2 -8
-10 -17 -17 -16 -13 -17 -12 -4 4 13 16 21 21 21 13z"/>
<path d="M8182 8009 c-10 -15 -10 -19 0 -17 6 2 26 -19 44 -47 72 -109 101
-146 139 -177 l39 -32 -25 44 c-44 77 -113 186 -134 211 -28 35 -49 41 -63 18z"/>
<path d="M8092 7928 c-18 -18 -15 -28 8 -28 13 0 20 7 20 20 0 23 -10 26 -28
8z"/>
<path d="M8211 7804 c0 -11 3 -14 6 -6 3 7 2 16 -1 19 -3 4 -6 -2 -5 -13z"/>
<path d="M7170 7572 c0 -6 -3 -18 -7 -28 -5 -13 -3 -15 8 -8 8 4 25 7 39 5 21
-3 22 -1 11 13 -8 9 -16 14 -19 11 -3 -3 -11 0 -19 6 -8 8 -13 8 -13 1z"/>
<path d="M4644 7128 c-155 -157 -176 -188 -137 -202 20 -8 46 16 160 151 77
90 127 173 105 173 -4 0 -62 -55 -128 -122z"/>
<path d="M6592 6691 c-14 -45 -16 -125 -3 -117 9 6 26 144 19 152 -3 2 -10
-13 -16 -35z"/>
<path d="M3656 6381 c-34 -37 19 -105 63 -82 40 22 38 70 -5 90 -33 15 -38 14
-58 -8z"/>
<path d="M8303 6215 c-36 -15 -168 -113 -243 -180 -53 -47 -23 -39 -420 -110
-125 -22 -526 -116 -555 -130 -29 -14 278 32 470 70 94 18 230 45 304 59 73
14 144 32 157 41 23 15 24 14 24 -5 0 -19 8 -15 61 27 34 26 96 80 138 118 42
39 92 82 111 97 34 27 34 28 10 27 -14 0 -40 -6 -57 -14z"/>
<path d="M3117 5921 c-19 -22 -40 -48 -46 -59 -10 -19 -8 -20 31 -15 30 5 51
16 79 44 l38 38 -31 16 c-17 8 -32 15 -33 15 -2 0 -19 -18 -38 -39z"/>
<path d="M2388 5783 c6 -2 18 -2 25 0 6 3 1 5 -13 5 -14 0 -19 -2 -12 -5z"/>
<path d="M2490 5765 c36 -8 76 -14 90 -13 14 0 -4 6 -40 14 -36 7 -76 13 -90
13 -14 -1 4 -7 40 -14z"/>
<path d="M8018 5730 c-52 -75 -51 -75 -291 -61 -261 14 -379 14 -505 0 -207
-23 -158 -27 278 -26 245 1 455 -2 466 -6 18 -6 25 -1 43 29 29 48 52 104 43
104 -4 -1 -19 -18 -34 -40z"/>
<path d="M2630 5746 c0 -2 14 -6 30 -8 17 -3 30 -1 30 4 0 4 -13 8 -30 8 -16
0 -30 -2 -30 -4z"/>
<path d="M2974 5658 l-19 -21 28 18 c28 18 33 25 19 25 -5 0 -17 -10 -28 -22z"/>
<path d="M8073 5540 c0 -30 2 -43 4 -27 2 15 2 39 0 55 -2 15 -4 2 -4 -28z"/>
<path d="M2376 5020 c3 -14 11 -51 17 -82 6 -32 15 -58 19 -58 13 0 -2 80 -23
125 -11 22 -16 29 -13 15z"/>
<path d="M3889 4843 c-13 -16 -12 -17 4 -4 9 7 17 15 17 17 0 8 -8 3 -21 -13z"/>
<path d="M8105 4464 c-118 -137 -316 -330 -433 -423 -47 -36 -94 -74 -106 -84
l-21 -18 25 12 c118 55 457 382 614 592 50 66 23 39 -79 -79z"/>
<path d="M2829 4007 c53 -73 345 -354 451 -434 145 -108 313 -212 370 -227 14
-4 -6 9 -44 29 -38 20 -106 62 -150 95 -137 99 -415 337 -541 464 -80 81 -108
105 -86 73z"/>
<path d="M3876 1355 c7 -18 138 -83 239 -119 319 -112 669 -186 985 -205 85
-6 157 -8 159 -5 11 11 -26 24 -66 24 -117 0 -473 60 -718 120 -190 47 -342
96 -481 156 -111 48 -126 52 -118 29z"/>
<path d="M2335 7640 c-4 -6 -11 -7 -17 -4 -7 4 -8 2 -4 -5 6 -9 11 -9 22 0 14
11 18 19 10 19 -3 0 -8 -5 -11 -10z"/>
<path d="M2564 3192 c3 -5 -9 -7 -27 -5 -40 5 -17 -11 31 -22 28 -6 32 -4 32
14 0 15 -6 21 -21 21 -11 0 -18 -4 -15 -8z"/>
<path d="M1656 3713 c16 -23 35 -45 42 -47 23 -10 12 10 -30 49 l-41 40 29
-42z"/>
<path d="M2335 2410 c10 -11 52 -43 94 -71 46 -31 124 -101 195 -176 109 -114
218 -213 234 -213 4 0 13 4 21 9 10 6 -33 54 -168 187 -164 162 -191 184 -279
231 -106 57 -124 63 -97 33z"/>
</g>
</svg>
